# xmcd CD database file
#
# Track frame offsets:
#	150
#	18257
#	28040
#	43195
#	58927
#	76240
#	102887
#	121412
#	133037
#	151900
#	169267
#	200452
#	223757
#	243320
#	262777
#	278592
#	294340
#
# Disc length: 4243 seconds
#
# Revision: 4
# Processed by: cddbd v1.5.1PL0 Copyright (c) Steve Scherf et al.
# Submitted via: CDex 1.51
#
DISCID=eb109111
DTITLE=Mathilde Santing - Matilde Matilde (Disk2)
DYEAR=1900
DGENRE=Jazz
TTITLE0=Love is a tender trap
TTITLE1=Lonely at the top
TTITLE2=Same girl
TTITLE3=Bad news from home
TTITLE4=Bad weather
TTITLE5=Love street
TTITLE6=Tiny demons
TTITLE7=Alice in winterland
TTITLE8=Crazy she calls me
TTITLE9=Hey Joan
TTITLE10=Let's burn the cornfield
TTITLE11=Just one victory
TTITLE12=I had a king
TTITLE13=Some people's lives
TTITLE14=De laatste wagen
TTITLE15=Inspiratie
TTITLE16=I believe i can fly
EXTD=
EXTT0=
EXTT1=
EXTT2=
EXTT3=
EXTT4=
EXTT5=
EXTT6=
EXTT7=
EXTT8=
EXTT9=
EXTT10=
EXTT11=
EXTT12=
EXTT13=
EXTT14=
EXTT15=
EXTT16=
PLAYORDER=
